<svg width="17" height="17" viewBox="0 0 17 17" fill="none" xmlns="http://www.w3.org/2000/svg">
<path d="M16.9933 12.021V9.16774C16.9933 8.74279 16.8721 8.31783 16.6898 7.95359L14.8733 4.85751C14.6911 4.49327 14.2662 4.25044 13.8413 4.25044H11.1095C10.6846 4.25044 10.3203 4.61468 10.3203 5.03963V11.5353H9.71318V3.03629C9.71318 2.36851 9.16689 1.82214 8.49903 1.82214H0V12.7495H1.82122C2.12476 11.7174 3.03537 10.9283 4.18873 10.9283C5.34225 10.9283 6.31349 11.7174 6.5564 12.7495H10.9881C11.2916 11.7174 12.2022 10.9283 13.3556 10.9283C14.327 10.9283 15.116 11.4746 15.4803 12.2638C15.6625 12.5674 15.9614 12.7495 16.265 12.7495C16.6898 12.7495 17.0541 12.3852 16.9933 12.021ZM11.5344 8.49996V5.46459H13.9627L15.7231 8.49996H11.5344Z" fill="#0044A4"/>
<path d="M13.3559 11.5353C12.3239 11.5353 11.5347 12.3245 11.5347 13.3566C11.5347 14.3886 12.3239 15.1778 13.3559 15.1778C14.3879 15.1778 15.1771 14.3886 15.1771 13.3566C15.1771 12.3245 14.3879 11.5353 13.3559 11.5353ZM13.3559 14.2065C12.8702 14.2065 12.5061 13.8422 12.5061 13.3566C12.5061 12.8709 12.8702 12.5067 13.3559 12.5067C13.8416 12.5067 14.2057 12.8709 14.2057 13.3566C14.2057 13.8422 13.8416 14.2065 13.3559 14.2065Z" fill="#0044A4"/>
<path d="M4.24944 11.5353C3.21746 11.5353 2.42822 12.3245 2.42822 13.3566C2.42822 14.3886 3.21746 15.1778 4.24944 15.1778C5.28143 15.1778 6.07066 14.3886 6.07066 13.3566C6.07066 12.3245 5.28143 11.5353 4.24944 11.5353ZM4.24944 14.2065C3.76375 14.2065 3.39962 13.8422 3.39962 13.3566C3.39962 12.8709 3.76378 12.5067 4.24944 12.5067C4.7351 12.5067 5.09927 12.8709 5.09927 13.3566C5.09927 13.8422 4.73514 14.2065 4.24944 14.2065Z" fill="#0044A4"/>
<path d="M4.24934 13.6601C4.41698 13.6601 4.55288 13.5242 4.55288 13.3566C4.55288 13.1889 4.41698 13.053 4.24934 13.053C4.0817 13.053 3.9458 13.1889 3.9458 13.3566C3.9458 13.5242 4.0817 13.6601 4.24934 13.6601Z" fill="#0044A4"/>
<path d="M13.3558 13.6601C13.5234 13.6601 13.6593 13.5242 13.6593 13.3566C13.6593 13.1889 13.5234 13.053 13.3558 13.053C13.1881 13.053 13.0522 13.1889 13.0522 13.3566C13.0522 13.5242 13.1881 13.6601 13.3558 13.6601Z" fill="#0044A4"/>
</svg>
