<svg width="15" height="17" viewBox="0 0 15 17" fill="none" xmlns="http://www.w3.org/2000/svg">
<path d="M7.28571 0C9.21801 0 11.0712 0.7676 12.4375 2.13394C13.8038 3.50027 14.5714 5.35342 14.5714 7.28571C14.5714 10.302 12.2724 13.4624 7.77143 16.8381C7.6313 16.9432 7.46087 17 7.28571 17C7.11056 17 6.94013 16.9432 6.8 16.8381C2.29905 13.4624 0 10.302 0 7.28571C0 5.35342 0.7676 3.50027 2.13394 2.13394C3.50027 0.7676 5.35342 0 7.28571 0ZM7.28571 4.85714C6.64162 4.85714 6.0239 5.11301 5.56845 5.56846C5.11301 6.0239 4.85714 6.64162 4.85714 7.28571C4.85714 7.92981 5.11301 8.54753 5.56845 9.00297C6.0239 9.45842 6.64162 9.71429 7.28571 9.71429C7.92981 9.71429 8.54753 9.45842 9.00297 9.00297C9.45842 8.54753 9.71429 7.92981 9.71429 7.28571C9.71429 6.64162 9.45842 6.0239 9.00297 5.56846C8.54753 5.11301 7.92981 4.85714 7.28571 4.85714Z" fill="#0044A4"/>
</svg>
