<svg width="17" height="17" viewBox="0 0 17 17" fill="none" xmlns="http://www.w3.org/2000/svg">
<path d="M0 8.46936V12.8689C0 14.1359 1.02705 15.1629 2.294 15.1629H14.706C15.973 15.1629 17 14.1359 17 12.8689V8.46936C17 8.24904 16.8214 8.0704 16.601 8.0704H0.398956C0.178633 8.0704 0 8.24904 0 8.46936ZM4.24446 11.262H3.18058C2.79499 11.262 2.48241 10.9495 2.48241 10.5639C2.48241 10.1783 2.79499 9.8657 3.18058 9.8657H4.24446C4.63006 9.8657 4.94264 10.1783 4.94264 10.5639C4.94264 10.9495 4.63006 11.262 4.24446 11.262Z" fill="#0044A4"/>
<path d="M17 6.27512V6.13107C17 4.86411 15.973 3.83707 14.706 3.83707H2.294C1.02705 3.83707 0 4.86411 0 6.13107V6.27512C0 6.49545 0.178633 6.67408 0.398956 6.67408H16.601C16.8214 6.67408 17 6.49545 17 6.27512Z" fill="#0044A4"/>
</svg>
