<svg width="60" height="60" viewBox="0 0 60 60" fill="none" xmlns="http://www.w3.org/2000/svg">
<path d="M57.3094 39.6367L59.2185 36.4208L59.2313 36.3311C59.6594 35.7157 59.9239 35.0014 60 34.2555C60 33.2049 59.4491 32.4234 57.7194 32.4234H50.032C50.1517 31.9024 50.2542 31.3728 50.3395 30.8346C52.0594 19.6015 44.3474 9.10082 33.1142 7.38093C21.881 5.66088 11.3804 13.3729 9.66047 24.6061C9.34449 26.6702 9.34449 28.7704 9.66047 30.8345C9.73735 31.3641 9.83985 31.8936 9.96797 32.4232H2.28059C0.550929 32.4232 0 33.2048 0 34.2554C0.076073 35.0012 0.340647 35.7155 0.768738 36.331L2.67777 39.6109L0.819987 42.9165C0.391896 43.532 0.127322 44.2462 0.0512492 44.9921C0.0512492 46.0427 0.602178 46.8242 2.33184 46.8242H8.23831V49.3867C8.2058 50.2768 8.52851 51.1433 9.13517 51.7954L9.19923 51.8723C9.83056 52.5054 10.6883 52.8604 11.5823 52.8588H48.4561C50.3121 52.8447 51.8072 51.3324 51.8001 49.4764V46.9139H57.7066C59.4363 46.9139 59.9872 46.1324 59.9872 45.0818C59.9111 44.3359 59.6465 43.6216 59.2185 43.0062L57.3094 39.6367ZM17.0147 14.755C24.1927 7.57279 35.8338 7.56943 43.016 14.7474C46.4683 18.1976 48.4069 22.8788 48.4049 27.7595C48.4074 29.3329 48.2093 30.9 47.8155 32.4232H46.0346C46.1799 31.9192 46.3037 31.411 46.4062 30.8985C48.0529 21.8483 42.0511 13.1767 33.001 11.5299C23.9507 9.88333 15.279 15.8849 13.6323 24.9352C13.2735 26.9069 13.2735 28.9271 13.6323 30.8985C13.7348 31.411 13.8586 31.9192 14.0038 32.4232H12.2229C10.577 26.1008 12.3999 19.3795 17.0147 14.755ZM18.3728 33.0894L18.296 33.0126C17.8767 32.6269 17.3282 32.412 16.7585 32.4104H16.2844C16.0697 31.7823 15.8985 31.1402 15.7719 30.4886C15.6004 29.5848 15.5146 28.6666 15.5157 27.7467C15.5157 19.7402 22.0062 13.2496 30.0128 13.2496C38.0194 13.2496 44.5099 19.7402 44.5099 27.7467C44.5111 28.6666 44.4252 29.5846 44.2537 30.4886C44.1272 31.1402 43.956 31.7823 43.7412 32.4104H43.2671C42.6975 32.412 42.1489 32.6269 41.7297 33.0126L41.6528 33.0894C41.2253 33.5179 40.9856 34.0986 40.9865 34.7038V37.1253H19.0519V34.7038C19.0495 34.0968 18.8051 33.5158 18.3728 33.0894ZM9.19923 38.1119C8.57559 38.7474 8.22982 39.6047 8.23831 40.495V44.6718H2.34465C2.43434 44.4796 2.57527 44.2361 2.69058 44.044L4.90711 40.2003C5.10666 39.8601 5.10666 39.4386 4.90711 39.0984L2.69058 35.2547C2.57527 35.0497 2.43434 34.8191 2.34465 34.6269H16.8354C16.8422 34.6477 16.8422 34.6702 16.8354 34.691V37.1125H11.5823C10.6927 37.1143 9.84017 37.4692 9.21204 38.0991L9.19923 38.1119ZM49.622 49.4764C49.6152 50.1245 49.0914 50.6482 48.4433 50.6551H11.5823C11.2699 50.6548 10.9702 50.5304 10.7495 50.3092C10.5516 50.092 10.4419 49.8087 10.442 49.5148V40.5462C10.442 39.8952 10.9697 39.3675 11.6208 39.3675H48.4561C48.7686 39.3678 49.0682 39.4922 49.2889 39.7134C49.5101 39.9341 49.6345 40.2337 49.6348 40.5462L49.622 49.4764ZM51.8001 44.659V40.495C51.8017 39.601 51.4467 38.7432 50.8136 38.1119C50.1855 37.482 49.333 37.1271 48.4433 37.1253H43.1775V34.7038C43.1706 34.683 43.1706 34.6606 43.1775 34.6397H57.6938C57.5913 34.8063 57.4632 35.0369 57.3479 35.2419H57.3094L55.0929 39.0856C54.8933 39.4258 54.8933 39.8473 55.0929 40.1875L57.3094 44.0312C57.4247 44.2362 57.5657 44.4668 57.6553 44.659H51.8001Z" fill="url(#paint0_linear)"/>
<path d="M37.6349 23.196C37.4838 23.0414 37.2904 22.9352 37.0788 22.891L33.0301 22.0326L30.9673 18.4836C30.6653 17.9636 29.9987 17.7868 29.4785 18.089C29.3149 18.184 29.1789 18.3201 29.0839 18.4836L27.0211 22.071L22.9725 22.9295C22.3836 23.0517 22.0051 23.6281 22.1273 24.2169C22.1664 24.4053 22.2547 24.58 22.3831 24.7232L25.1505 27.8238L24.7149 31.9365C24.6489 32.5344 25.0801 33.0725 25.6779 33.1385C25.8696 33.1596 26.0634 33.1295 26.2396 33.0512L30.0192 31.2959L33.7476 32.9615C34.2838 33.2339 34.9393 33.0201 35.2119 32.4839C35.3077 32.2953 35.3466 32.0829 35.3235 31.8724L34.8879 27.7597L37.6169 24.736C38.0471 24.3158 38.0553 23.6263 37.6349 23.196ZM32.9276 26.7219C32.722 26.9528 32.6241 27.2602 32.6586 27.5675L32.9532 30.2837L30.4677 29.1691C30.1863 29.0441 29.865 29.0441 29.5836 29.1691L27.098 30.2837L27.3927 27.5675C27.4292 27.2352 27.3112 26.9046 27.0724 26.6707L25.2915 24.6976L27.9308 24.1466C28.2694 24.1036 28.5681 23.9045 28.738 23.6085L30.0192 21.2895L31.3773 23.6085C31.5309 23.8777 31.7918 24.0688 32.0948 24.1338L34.7598 24.6976L32.9276 26.7219Z" fill="url(#paint1_linear)"/>
<defs>
<linearGradient id="paint0_linear" x1="30" y1="7.14099" x2="30" y2="52.8588" gradientUnits="userSpaceOnUse">
<stop stop-color="#0044A4"/>
<stop offset="1" stop-color="#00347E"/>
</linearGradient>
<linearGradient id="paint1_linear" x1="30.0247" y1="17.9414" x2="30.0247" y2="33.145" gradientUnits="userSpaceOnUse">
<stop stop-color="#0044A4"/>
<stop offset="1" stop-color="#00347E"/>
</linearGradient>
</defs>
</svg>
