<svg width="60" height="60" viewBox="0 0 60 60" fill="none" xmlns="http://www.w3.org/2000/svg">
<path d="M12.1875 44.0625C11.6312 44.0625 11.0875 44.2275 10.625 44.5365C10.1624 44.8455 9.80196 45.2848 9.58909 45.7987C9.37622 46.3126 9.32052 46.8781 9.42904 47.4237C9.53756 47.9693 9.80543 48.4704 10.1988 48.8637C10.5921 49.2571 11.0932 49.5249 11.6388 49.6335C12.1844 49.742 12.7499 49.6863 13.2638 49.4734C13.7777 49.2605 14.217 48.9001 14.526 48.4375C14.835 47.975 15 47.4313 15 46.875C14.9992 46.1293 14.7026 45.4145 14.1753 44.8872C13.648 44.3599 12.9332 44.0633 12.1875 44.0625ZM12.1875 47.8125C12.0021 47.8125 11.8208 47.7575 11.6667 47.6545C11.5125 47.5515 11.3923 47.4051 11.3214 47.2338C11.2504 47.0625 11.2318 46.874 11.268 46.6921C11.3042 46.5102 11.3935 46.3432 11.5246 46.2121C11.6557 46.081 11.8227 45.9917 12.0046 45.9555C12.1865 45.9193 12.375 45.9379 12.5463 46.0089C12.7176 46.0798 12.864 46.2 12.967 46.3542C13.07 46.5083 13.125 46.6896 13.125 46.875C13.1247 47.1236 13.0259 47.3619 12.8501 47.5376C12.6743 47.7134 12.4361 47.8122 12.1875 47.8125Z" fill="url(#paint0_linear)"/>
<path d="M47.8125 44.0625C47.2562 44.0625 46.7125 44.2275 46.25 44.5365C45.7874 44.8455 45.427 45.2848 45.2141 45.7987C45.0012 46.3126 44.9455 46.8781 45.054 47.4237C45.1626 47.9693 45.4304 48.4704 45.8238 48.8637C46.2171 49.2571 46.7182 49.5249 47.2638 49.6335C47.8094 49.742 48.3749 49.6863 48.8888 49.4734C49.4027 49.2605 49.842 48.9001 50.151 48.4375C50.4601 47.975 50.625 47.4313 50.625 46.875C50.6242 46.1293 50.3276 45.4145 49.8003 44.8872C49.2731 44.3599 48.5582 44.0633 47.8125 44.0625ZM47.8125 47.8125C47.6271 47.8125 47.4458 47.7575 47.2917 47.6545C47.1375 47.5515 47.0173 47.4051 46.9464 47.2338C46.8754 47.0625 46.8568 46.874 46.893 46.6921C46.9292 46.5102 47.0185 46.3432 47.1496 46.2121C47.2807 46.081 47.4477 45.9917 47.6296 45.9555C47.8115 45.9193 48 45.9379 48.1713 46.0089C48.3426 46.0798 48.489 46.2 48.592 46.3542C48.695 46.5083 48.75 46.6896 48.75 46.875C48.7497 47.1236 48.6509 47.3619 48.4751 47.5376C48.2994 47.7134 48.0611 47.8122 47.8125 47.8125Z" fill="url(#paint1_linear)"/>
<path d="M58.9137 31.3676L50.4762 18.2426C50.3912 18.1106 50.2745 18.0021 50.1367 17.9269C49.9989 17.8518 49.8445 17.8124 49.6875 17.8125H38.4375V12.6562C38.4365 11.7863 38.0905 10.9523 37.4754 10.3371C36.8602 9.72197 36.0262 9.37596 35.1562 9.375H4.21875C3.3488 9.37596 2.51476 9.72197 1.89962 10.3371C1.28447 10.9523 0.938462 11.7863 0.9375 12.6562V46.875C0.9375 47.1236 1.03627 47.3621 1.21209 47.5379C1.3879 47.7137 1.62636 47.8125 1.875 47.8125H5.69297C5.91833 49.3742 6.69892 50.8025 7.8917 51.8355C9.08448 52.8685 10.6096 53.4371 12.1875 53.4371C13.7654 53.4371 15.2905 52.8685 16.4833 51.8355C17.6761 50.8025 18.4567 49.3742 18.682 47.8125H41.318C41.5433 49.3742 42.3239 50.8025 43.5167 51.8355C44.7095 52.8685 46.2346 53.4371 47.8125 53.4371C49.3904 53.4371 50.9155 52.8685 52.1083 51.8355C53.3011 50.8025 54.0817 49.3742 54.307 47.8125H58.125C58.3736 47.8125 58.6121 47.7137 58.7879 47.5379C58.9637 47.3621 59.0625 47.1236 59.0625 46.875V31.875C59.0625 31.6951 59.0108 31.519 58.9137 31.3676ZM12.1875 51.5625C11.2604 51.5625 10.3541 51.2876 9.58326 50.7725C8.81241 50.2574 8.2116 49.5254 7.85681 48.6688C7.50203 47.8123 7.4092 46.8698 7.59007 45.9605C7.77094 45.0512 8.21738 44.216 8.87294 43.5604C9.5285 42.9049 10.3637 42.4584 11.273 42.2776C12.1823 42.0967 13.1248 42.1895 13.9813 42.5443C14.8379 42.8991 15.5699 43.4999 16.085 44.2708C16.6001 45.0416 16.875 45.9479 16.875 46.875C16.8738 48.1178 16.3795 49.3094 15.5007 50.1882C14.6219 51.067 13.4303 51.5613 12.1875 51.5625ZM36.5625 45.9375H18.682C18.4567 44.3757 17.6761 42.9475 16.4833 41.9145C15.2905 40.8815 13.7654 40.3128 12.1875 40.3128C10.6096 40.3128 9.08448 40.8815 7.8917 41.9145C6.69892 42.9475 5.91833 44.3757 5.69297 45.9375H2.8125V36.5625H36.5625V45.9375ZM36.5625 34.6875H2.8125V12.6562C2.81281 12.2834 2.96107 11.9259 3.22472 11.6622C3.48838 11.3986 3.84588 11.2503 4.21875 11.25H35.1562C35.5291 11.2503 35.8866 11.3986 36.1503 11.6622C36.4139 11.9259 36.5622 12.2834 36.5625 12.6562V34.6875ZM50.9836 22.5L56.4082 30.9375H43.125V22.5H50.9836ZM47.8125 51.5625C46.8854 51.5625 45.9791 51.2876 45.2083 50.7725C44.4374 50.2574 43.8366 49.5254 43.4818 48.6688C43.127 47.8123 43.0342 46.8698 43.2151 45.9605C43.3959 45.0512 43.8424 44.216 44.4979 43.5604C45.1535 42.9049 45.9887 42.4584 46.898 42.2776C47.8073 42.0967 48.7498 42.1895 49.6063 42.5443C50.4629 42.8991 51.1949 43.4999 51.71 44.2708C52.2251 45.0416 52.5 45.9479 52.5 46.875C52.4988 48.1178 52.0045 49.3094 51.1257 50.1882C50.2469 51.067 49.0553 51.5613 47.8125 51.5625ZM57.1875 38.4375H55.3125C55.0639 38.4375 54.8254 38.3387 54.6496 38.1629C54.4738 37.9871 54.375 37.7486 54.375 37.5C54.375 37.2514 54.4738 37.0129 54.6496 36.8371C54.8254 36.6613 55.0639 36.5625 55.3125 36.5625H57.1875V38.4375ZM57.1875 34.6875H55.3125C54.5666 34.6875 53.8512 34.9838 53.3238 35.5113C52.7963 36.0387 52.5 36.7541 52.5 37.5C52.5 38.2459 52.7963 38.9613 53.3238 39.4887C53.8512 40.0162 54.5666 40.3125 55.3125 40.3125H57.1875V45.9375H54.307C54.0817 44.3757 53.3011 42.9475 52.1083 41.9145C50.9155 40.8815 49.3904 40.3128 47.8125 40.3128C46.2346 40.3128 44.7095 40.8815 43.5167 41.9145C42.3239 42.9475 41.5433 44.3757 41.318 45.9375H38.4375V19.6875H49.1754L49.7789 20.625H42.1875C41.9389 20.625 41.7004 20.7238 41.5246 20.8996C41.3488 21.0754 41.25 21.3139 41.25 21.5625V31.875C41.25 32.1236 41.3488 32.3621 41.5246 32.5379C41.7004 32.7137 41.9389 32.8125 42.1875 32.8125H57.1875V34.6875Z" fill="url(#paint2_linear)"/>
<path d="M45 34.6875H42.1875C41.9389 34.6875 41.7004 34.7863 41.5246 34.9621C41.3488 35.1379 41.25 35.3764 41.25 35.625C41.25 35.8736 41.3488 36.1121 41.5246 36.2879C41.7004 36.4637 41.9389 36.5625 42.1875 36.5625H45C45.2486 36.5625 45.4871 36.4637 45.6629 36.2879C45.8387 36.1121 45.9375 35.8736 45.9375 35.625C45.9375 35.3764 45.8387 35.1379 45.6629 34.9621C45.4871 34.7863 45.2486 34.6875 45 34.6875Z" fill="url(#paint3_linear)"/>
<path d="M25.3125 40.3125H32.8125C33.0611 40.3125 33.2996 40.2137 33.4754 40.0379C33.6512 39.8621 33.75 39.6236 33.75 39.375C33.75 39.1264 33.6512 38.8879 33.4754 38.7121C33.2996 38.5363 33.0611 38.4375 32.8125 38.4375H25.3125C25.0639 38.4375 24.8254 38.5363 24.6496 38.7121C24.4738 38.8879 24.375 39.1264 24.375 39.375C24.375 39.6236 24.4738 39.8621 24.6496 40.0379C24.8254 40.2137 25.0639 40.3125 25.3125 40.3125Z" fill="url(#paint4_linear)"/>
<path d="M32.8125 41.25H30C29.7514 41.25 29.5129 41.3488 29.3371 41.5246C29.1613 41.7004 29.0625 41.9389 29.0625 42.1875C29.0625 42.4361 29.1613 42.6746 29.3371 42.8504C29.5129 43.0262 29.7514 43.125 30 43.125H32.8125C33.0611 43.125 33.2996 43.0262 33.4754 42.8504C33.6512 42.6746 33.75 42.4361 33.75 42.1875C33.75 41.9389 33.6512 41.7004 33.4754 41.5246C33.2996 41.3488 33.0611 41.25 32.8125 41.25Z" fill="url(#paint5_linear)"/>
<defs>
<linearGradient id="paint0_linear" x1="12.1875" y1="44.0625" x2="12.1875" y2="49.6875" gradientUnits="userSpaceOnUse">
<stop stop-color="#0044A4"/>
<stop offset="1" stop-color="#00347E"/>
</linearGradient>
<linearGradient id="paint1_linear" x1="47.8125" y1="44.0625" x2="47.8125" y2="49.6875" gradientUnits="userSpaceOnUse">
<stop stop-color="#0044A4"/>
<stop offset="1" stop-color="#00347E"/>
</linearGradient>
<linearGradient id="paint2_linear" x1="30" y1="9.375" x2="30" y2="53.4371" gradientUnits="userSpaceOnUse">
<stop stop-color="#0044A4"/>
<stop offset="1" stop-color="#00347E"/>
</linearGradient>
<linearGradient id="paint3_linear" x1="43.5938" y1="34.6875" x2="43.5938" y2="36.5625" gradientUnits="userSpaceOnUse">
<stop stop-color="#0044A4"/>
<stop offset="1" stop-color="#00347E"/>
</linearGradient>
<linearGradient id="paint4_linear" x1="29.0625" y1="38.4375" x2="29.0625" y2="40.3125" gradientUnits="userSpaceOnUse">
<stop stop-color="#0044A4"/>
<stop offset="1" stop-color="#00347E"/>
</linearGradient>
<linearGradient id="paint5_linear" x1="31.4062" y1="41.25" x2="31.4062" y2="43.125" gradientUnits="userSpaceOnUse">
<stop stop-color="#0044A4"/>
<stop offset="1" stop-color="#00347E"/>
</linearGradient>
</defs>
</svg>
