<svg width="148" height="43" viewBox="0 0 148 43" fill="none" xmlns="http://www.w3.org/2000/svg">
<path d="M44.9265 6.54338C44.9265 8.41295 43.9905 10.1657 42.4696 11.2173C42.3526 11.3341 42.2356 11.3341 42.1186 11.451C42.1186 11.451 42.0016 11.451 42.0016 11.5678L41.4166 12.0352L32.6419 18.9292C32.6419 15.6575 32.6419 14.9564 32.6419 14.7227C32.6419 14.6059 32.5249 14.6059 32.4079 14.6059L29.717 17.2934C29.717 17.2934 29.6 17.4102 29.717 17.5271C30.419 19.3966 28.898 21.3831 26.9091 21.2662C25.3881 21.1494 24.2182 19.9809 24.2182 18.4619C24.2182 16.1249 26.7921 14.8396 28.664 16.1249L26.6751 18.1113C26.4411 18.345 26.4411 18.5787 26.6751 18.8124C26.9091 19.0461 27.1431 19.0461 27.3771 18.8124L38.1407 8.0624C39.3107 6.66023 41.1826 5.95914 43.0545 6.19284C43.4055 6.19284 43.9905 6.30969 44.3415 6.42653C44.4585 6.30969 44.3415 6.30969 44.4585 6.19284C44.4585 5.95914 44.5755 5.95914 44.6925 5.84229C44.8095 5.72545 44.8095 5.72545 44.9265 5.6086C44.3415 5.3749 43.7565 5.25806 43.1715 5.14121C41.1826 4.90751 39.3107 5.6086 37.9067 6.89392H37.7897L31.5889 13.0869C31.2379 12.8532 30.77 12.7363 30.302 12.7363H20.7083C20.1233 12.7363 19.5383 12.97 19.0704 13.4374L5.49881 26.9917C4.67984 27.8097 4.67984 29.2119 5.49881 30.0298L15.3265 39.845C16.1455 40.6629 17.5494 40.6629 18.3684 39.845C25.5051 32.7173 22.3462 35.8722 31.9399 26.2907C32.4079 25.8233 32.6419 25.239 32.6419 24.6548C32.6419 22.7852 32.6419 21.2662 32.6419 19.9809L42.5866 12.1521C42.7036 12.0352 42.9375 11.9184 43.0545 11.8015C44.8095 10.5162 45.8624 8.52979 45.8624 6.42653L44.9265 6.54338Z" fill="#F3AB03"/>
<path d="M47.9684 19.2799V8.76359H43.7565V5.375H55.9241V8.76359H51.7123V19.2799H47.9684Z" fill="#0044A4"/>
<path d="M61.1889 19.5135C59.551 19.5135 58.147 18.9293 56.9771 17.8777C55.8071 16.826 55.3391 15.4239 55.3391 13.9048C55.3391 12.3858 55.9241 10.9836 56.9771 9.93201C58.147 8.88038 59.551 8.29614 61.1889 8.29614C62.8269 8.29614 64.2308 8.88038 65.4008 9.93201C66.5707 10.9836 67.0387 12.3858 67.0387 13.9048C67.0387 15.4239 66.4537 16.826 65.4008 17.8777C64.2308 19.0461 62.8269 19.5135 61.1889 19.5135ZM61.1889 16.3586C61.8909 16.3586 62.3589 16.1249 62.8269 15.6576C63.2948 15.1902 63.4118 14.6059 63.4118 13.9048C63.4118 13.2038 63.1778 12.6195 62.7099 12.1521C62.2419 11.6847 61.7739 11.451 61.0719 11.451C60.3699 11.451 59.902 11.6847 59.434 12.1521C58.966 12.6195 58.849 13.2038 58.849 13.9048C58.849 14.6059 59.083 15.1902 59.551 15.6576C60.019 16.1249 60.4869 16.3586 61.1889 16.3586Z" fill="#0044A4"/>
<path d="M68.6767 22.4347V8.52984H72.4206V9.93201C73.3565 8.88038 74.4095 8.29614 75.6965 8.29614C76.9834 8.29614 78.1534 8.76353 79.0893 9.81516C80.0253 10.8668 80.4933 12.1521 80.4933 13.9048C80.4933 15.5407 80.0253 16.9429 79.0893 17.9945C78.1534 19.0461 77.1004 19.5135 75.6965 19.5135C74.4095 19.5135 73.3565 19.0461 72.4206 17.9945V22.4347H68.6767ZM74.5265 16.3586C75.1115 16.3586 75.6965 16.1249 76.0474 15.6576C76.3984 15.1902 76.6324 14.6059 76.6324 13.9048C76.6324 13.2038 76.3984 12.6195 76.0474 12.1521C75.5795 11.6847 75.1115 11.451 74.5265 11.451C73.9415 11.451 73.3565 11.6847 73.0056 12.1521C72.5376 12.6195 72.4206 13.2038 72.4206 13.9048C72.4206 14.6059 72.6546 15.1902 73.0056 15.6576C73.4735 16.1249 73.9415 16.3586 74.5265 16.3586Z" fill="#0044A4"/>
<path d="M82.3652 19.2799V5.375H93.4799V8.76359H86.2261V11.1005H92.7779V14.2554H86.2261V19.163H82.3652V19.2799Z" fill="#0044A4"/>
<path d="M100.149 19.5135C98.5107 19.5135 97.1067 18.9293 95.9368 17.8777C94.7668 16.826 94.2988 15.4239 94.2988 13.9048C94.2988 12.3858 94.8838 10.9836 95.9368 9.93201C97.1067 8.88038 98.5107 8.29614 100.149 8.29614C101.787 8.29614 103.191 8.88038 104.36 9.93201C105.53 10.9836 105.998 12.3858 105.998 13.9048C105.998 15.4239 105.413 16.826 104.36 17.8777C103.191 19.0461 101.787 19.5135 100.149 19.5135ZM100.149 16.3586C100.851 16.3586 101.319 16.1249 101.787 15.6576C102.255 15.1902 102.372 14.6059 102.372 13.9048C102.372 13.2038 102.138 12.6195 101.67 12.1521C101.202 11.6847 100.734 11.451 100.032 11.451C99.3297 11.451 98.8617 11.6847 98.3937 12.1521C97.9257 12.6195 97.8087 13.2038 97.8087 13.9048C97.8087 14.6059 98.0427 15.1902 98.5107 15.6576C98.9787 16.1249 99.5636 16.3586 100.149 16.3586Z" fill="#0044A4"/>
<path d="M107.636 19.2798V8.52984H111.38V10.6331C112.082 8.99723 113.252 8.17929 114.773 8.29614V12.269H114.422C112.316 12.269 111.38 13.4374 111.38 15.8912V19.163H107.636V19.2798Z" fill="#0044A4"/>
<path d="M116.177 19.2798V8.52984H119.921V10.0489C120.857 8.88038 121.91 8.29614 123.08 8.29614C124.484 8.29614 125.537 8.88038 126.122 10.0489C127.175 8.88038 128.345 8.29614 129.749 8.29614C130.919 8.29614 131.855 8.64669 132.44 9.34777C133.141 10.0489 133.375 10.9836 133.375 12.269V19.2798H129.632V13.4374C129.632 12.8532 129.515 12.3858 129.281 12.1521C129.047 11.8016 128.696 11.6847 128.228 11.6847C127.76 11.6847 127.409 11.8016 127.058 12.1521C126.824 12.5027 126.59 12.8532 126.59 13.4374V19.2798H122.846V13.4374C122.846 12.8532 122.729 12.3858 122.495 12.1521C122.261 11.8016 121.91 11.6847 121.442 11.6847C120.974 11.6847 120.623 11.8016 120.389 12.1521C120.155 12.5027 119.921 12.8532 119.921 13.4374V19.2798H116.177Z" fill="#0044A4"/>
<path d="M50.0743 39.0271C47.5004 39.0271 45.2775 38.2091 43.5225 36.6901L45.6284 34.1195C47.0324 35.1711 48.5533 35.7553 50.0743 35.7553C51.1273 35.7553 51.7122 35.4048 51.7122 34.8205C51.7122 34.5869 51.5952 34.2363 51.2443 34.1195C50.8933 33.8858 50.3083 33.7689 49.3723 33.5352C48.5534 33.3015 47.8514 33.1847 47.2664 32.951C46.6814 32.7173 46.2134 32.4836 45.6284 32.133C45.1605 31.7825 44.6925 31.432 44.4585 30.8477C44.2245 30.3803 44.1075 29.7961 44.1075 29.095C44.1075 27.8097 44.5755 26.758 45.5115 25.9401C46.4474 25.1222 47.7344 24.6548 49.3723 24.6548C51.5952 24.6548 53.5842 25.239 55.1051 26.5244L53.2332 29.2119C51.9462 28.2771 50.6593 27.8097 49.3723 27.8097C48.9043 27.8097 48.5533 27.9265 48.3194 28.0434C48.0854 28.1602 47.9684 28.3939 47.9684 28.7445C47.9684 29.095 48.0854 29.3287 48.4364 29.4455C48.7873 29.5624 49.3723 29.7961 50.3083 30.0298C52.0632 30.3803 53.3502 30.9646 54.1692 31.5488C54.9881 32.133 55.4561 33.1847 55.4561 34.3532C55.4561 35.7553 54.9881 36.807 53.9352 37.6249C53.1162 38.6765 51.8292 39.0271 50.0743 39.0271Z" fill="#0044A4"/>
<path d="M61.4229 39.0273C58.966 39.0273 57.7961 37.8588 57.7961 35.5218V31.1984H56.5091V28.1604H57.7961V25.4729H61.5399V28.1604H63.9968V31.1984H61.5399V34.8207C61.5399 35.5218 61.8909 35.8724 62.5929 35.8724C63.0609 35.8724 63.5289 35.7555 63.9968 35.5218V38.443C63.2949 38.7936 62.4759 39.0273 61.4229 39.0273Z" fill="#0044A4"/>
<path d="M70.8996 39.0272C69.2617 39.0272 67.8577 38.443 66.6877 37.3913C65.5178 36.3397 65.0498 34.9375 65.0498 33.4185C65.0498 31.8995 65.6348 30.4973 66.6877 29.4457C67.8577 28.3941 69.2617 27.8098 70.8996 27.8098C72.5375 27.8098 73.9415 28.3941 75.1115 29.4457C76.2814 30.4973 76.7494 31.8995 76.7494 33.4185C76.7494 34.9375 76.1644 36.3397 75.1115 37.3913C73.9415 38.5598 72.5375 39.0272 70.8996 39.0272ZM70.8996 35.8723C71.6016 35.8723 72.0696 35.6386 72.5375 35.1712C73.0055 34.7038 73.1225 34.1196 73.1225 33.4185C73.1225 32.7174 72.8885 32.1332 72.4206 31.6658C71.9526 31.1984 71.4846 30.9647 70.7826 30.9647C70.0806 30.9647 69.6126 31.1984 69.1447 31.6658C68.6767 32.1332 68.5597 32.7174 68.5597 33.4185C68.5597 34.1196 68.7937 34.7038 69.2617 35.1712C69.7296 35.6386 70.3146 35.8723 70.8996 35.8723Z" fill="#0044A4"/>
<path d="M78.3873 38.7935V28.0435H82.1312V30.1468C82.8332 28.5109 84.0031 27.693 85.5241 27.8098V31.7826H85.1731C83.0672 31.7826 82.1312 32.9511 82.1312 35.4049V38.6767H78.3873V38.7935Z" fill="#0044A4"/>
<path d="M91.9589 39.0272C90.3209 39.0272 88.917 38.5598 87.864 37.5082C86.8111 36.4566 86.2261 35.1712 86.2261 33.4185C86.2261 31.7826 86.6941 30.4973 87.747 29.4457C88.8 28.3941 90.0869 27.8098 91.6079 27.8098C93.3628 27.8098 94.6498 28.3941 95.5858 29.4457C96.5217 30.4973 96.9897 31.8995 96.9897 33.6522C96.9897 34.0027 96.9897 34.2364 96.9897 34.4701H89.853C90.2039 35.6386 90.9059 36.2229 92.1929 36.2229C93.0118 36.2229 93.8308 35.8723 94.5328 35.1712L96.6387 36.9239C95.4688 38.3261 93.9478 39.0272 91.9589 39.0272ZM89.853 32.6006H93.5968C93.4798 32.0163 93.3628 31.5489 93.0118 31.1984C92.6609 30.8479 92.3099 30.731 91.7249 30.731C91.2569 30.731 90.7889 30.9647 90.5549 31.1984C90.2039 31.5489 89.97 32.0163 89.853 32.6006Z" fill="#0044A4"/>
</svg>
